<svg width="86" height="27" viewBox="0 0 86 27" fill="none" xmlns="http://www.w3.org/2000/svg">
<path d="M0.731737 25.8491C0.517094 25.8491 0.341478 25.7781 0.204887 25.6362C0.0682956 25.4943 0 25.3119 0 25.089V5.32603C0 5.10306 0.0682956 4.92064 0.204887 4.77875C0.341478 4.63686 0.517094 4.56592 0.731737 4.56592H9.65893C11.337 4.56592 12.7127 4.80915 13.7859 5.29563C14.8591 5.7821 15.6494 6.4814 16.1568 7.39354C16.6836 8.2854 16.947 9.34956 16.947 10.586C16.947 11.3157 16.8104 11.9643 16.5373 12.5319C16.2836 13.0792 15.9616 13.5352 15.5714 13.9001C15.2006 14.265 14.8494 14.5285 14.5177 14.6906C15.2592 15.0555 15.9128 15.6534 16.4787 16.4845C17.0641 17.3155 17.3568 18.2885 17.3568 19.4033C17.3568 20.7411 17.0641 21.8965 16.4787 22.8694C15.9128 23.8221 15.0738 24.5619 13.9615 25.089C12.8688 25.5957 11.5224 25.8491 9.92236 25.8491H0.731737ZM5.23924 21.8965H9.33697C10.176 21.8965 10.8102 21.6431 11.2395 21.1364C11.6688 20.6296 11.8834 20.0519 11.8834 19.4033C11.8834 18.6939 11.659 18.0959 11.2102 17.6094C10.7809 17.123 10.1565 16.8797 9.33697 16.8797H5.23924V21.8965ZM5.23924 13.0184H9.07354C9.87358 13.0184 10.4687 12.8055 10.859 12.3799C11.2688 11.9542 11.4736 11.4069 11.4736 10.738C11.4736 10.0894 11.2688 9.56239 10.859 9.157C10.4687 8.73133 9.87358 8.5185 9.07354 8.5185H5.23924V13.0184Z" fill="black"/>
<path d="M19.1756 26.3801C18.9175 26.4066 18.6983 26.343 18.5179 26.1893C18.3375 26.0356 18.2346 25.8247 18.2091 25.5567L15.9138 1.43609C15.8883 1.16808 15.9496 0.940373 16.0975 0.752965C16.2455 0.565556 16.4484 0.458606 16.7064 0.432115L20.8579 0.00584237C21.1159 -0.0206492 21.3351 0.0429513 21.5156 0.196644C21.696 0.350335 21.7989 0.561184 21.8244 0.82919L24.1197 24.9498C24.1452 25.2178 24.0839 25.4455 23.936 25.633C23.788 25.8204 23.585 25.9273 23.327 25.9538L19.1756 26.3801Z" fill="black"/>
<path d="M30.686 26.2523C29.289 26.2523 28.0342 25.9835 26.9218 25.446C25.8352 24.8817 24.9685 24.1292 24.3217 23.1886C23.675 22.248 23.3516 21.1864 23.3516 20.004C23.3516 18.0959 24.1018 16.5909 25.6024 15.4891C27.1029 14.3603 29.095 13.5944 31.5786 13.1913L36.4294 12.4254V11.861C36.4294 10.8936 36.2354 10.1545 35.8473 9.64389C35.4593 9.13328 34.7478 8.87797 33.713 8.87797C32.9886 8.87797 32.3935 9.02578 31.9279 9.3214C31.488 9.61702 31.1388 10.0201 30.8801 10.5307C30.6472 10.8801 30.3238 11.0548 29.9099 11.0548H25.5635C25.279 11.0548 25.0591 10.9742 24.9038 10.8129C24.7486 10.6248 24.6839 10.4098 24.7098 10.1679C24.7098 9.6842 24.878 9.13328 25.2143 8.51517C25.5765 7.87018 26.1198 7.23863 26.8442 6.62052C27.5686 6.00241 28.4999 5.4918 29.6383 5.08868C30.7766 4.68557 32.1478 4.48401 33.7518 4.48401C35.4334 4.48401 36.8692 4.68557 38.0593 5.08868C39.2494 5.4918 40.2066 6.05616 40.931 6.78177C41.6813 7.50738 42.2375 8.36736 42.5997 9.36171C42.9619 10.3292 43.143 11.4042 43.143 12.5866V24.8414C43.143 25.137 43.0395 25.3788 42.8325 25.567C42.6514 25.7551 42.4315 25.8491 42.1728 25.8491H37.6712C37.3867 25.8491 37.1538 25.7551 36.9727 25.567C36.7916 25.3788 36.7011 25.137 36.7011 24.8414V23.4305C36.3648 23.9411 35.912 24.4114 35.3428 24.8414C34.7737 25.2713 34.101 25.6073 33.3249 25.8491C32.5746 26.1179 31.695 26.2523 30.686 26.2523ZM32.51 21.6567C33.2602 21.6567 33.9329 21.4955 34.5279 21.173C35.1488 20.8236 35.6274 20.2996 35.9638 19.6009C36.3259 18.8752 36.507 17.975 36.507 16.9V16.3356L33.2085 16.9403C31.9925 17.1553 31.1 17.4912 30.5308 17.9481C29.9875 18.3781 29.7159 18.8887 29.7159 19.4799C29.7159 19.9368 29.8452 20.3265 30.1039 20.649C30.3626 20.9714 30.699 21.2268 31.1129 21.4149C31.5268 21.5761 31.9925 21.6567 32.51 21.6567Z" fill="black"/>
<path d="M50.4352 25.3647C48.8858 25.3647 47.5144 25.0711 46.3209 24.4838C45.1274 23.8966 44.1747 23.0483 43.4628 21.9391C42.7719 20.8081 42.395 19.4596 42.3322 17.8936C42.3113 17.5456 42.3008 17.1106 42.3008 16.5886C42.3008 16.0448 42.3113 15.599 42.3322 15.251C42.395 13.6632 42.7719 12.3147 43.4628 11.2054C44.1538 10.0744 45.096 9.21532 46.2895 8.62807C47.5039 8.04082 48.8858 7.74719 50.4352 7.74719C51.88 7.74719 53.1153 7.96469 54.1413 8.39969C55.1672 8.81294 56.0048 9.33495 56.6538 9.9657C57.3029 10.5964 57.7845 11.2489 58.0986 11.9232C58.4336 12.5757 58.6116 13.1521 58.6325 13.6523C58.6534 13.8698 58.5802 14.0656 58.4127 14.2396C58.2451 14.3918 58.0567 14.468 57.8473 14.468H53.8586C53.6283 14.468 53.4503 14.4136 53.3247 14.3048C53.1991 14.1961 53.0839 14.033 52.9792 13.8155C52.728 13.1412 52.4034 12.6627 52.0056 12.38C51.6287 12.0972 51.1367 11.9558 50.5295 11.9558C49.6919 11.9558 49.0429 12.2386 48.5822 12.8041C48.1425 13.3696 47.9017 14.2396 47.8598 15.4141C47.8389 16.2841 47.8389 17.0562 47.8598 17.7305C47.9017 18.9267 48.1425 19.7967 48.5822 20.3405C49.0429 20.8842 49.6919 21.1561 50.5295 21.1561C51.1785 21.1561 51.6915 21.0147 52.0684 20.732C52.4453 20.4492 52.7489 19.9707 52.9792 19.2965C53.0839 19.079 53.1991 18.9158 53.3247 18.8071C53.4503 18.6983 53.6283 18.644 53.8586 18.644H57.8473C58.0567 18.644 58.2451 18.731 58.4127 18.905C58.5802 19.0572 58.6534 19.2421 58.6325 19.4596C58.6116 19.8293 58.5069 20.2643 58.3184 20.7646C58.13 21.2431 57.8369 21.7542 57.439 22.298C57.0412 22.8417 56.5178 23.3528 55.8687 23.8313C55.2405 24.2881 54.4763 24.6578 53.5759 24.9406C52.6756 25.2233 51.6287 25.3647 50.4352 25.3647Z" fill="black"/>
<path d="M57.3888 26.7613C57.1229 26.7613 56.9054 26.6734 56.7362 26.4976C56.567 26.3219 56.4824 26.0959 56.4824 25.8198V0.964085C56.4824 0.687911 56.567 0.461951 56.7362 0.286205C56.9054 0.110457 57.1229 0.022583 57.3888 0.022583H61.5943C61.836 0.022583 62.0414 0.110457 62.2106 0.286205C62.404 0.461951 62.5006 0.687911 62.5006 0.964085V13.5802L67.54 7.81823C67.685 7.64248 67.8421 7.49184 68.0113 7.36631C68.1805 7.24077 68.4222 7.178 68.7364 7.178H73.5944C73.812 7.178 73.9932 7.26588 74.1382 7.44163C74.3074 7.59227 74.392 7.78057 74.392 8.00653C74.392 8.10695 74.3679 8.21994 74.3195 8.34547C74.2712 8.471 74.1987 8.57143 74.102 8.64675L67.5762 15.9528L75.0084 25.3302C75.2017 25.531 75.2984 25.7319 75.2984 25.9327C75.2984 26.1587 75.2138 26.3596 75.0446 26.5353C74.8996 26.6859 74.7062 26.7613 74.4645 26.7613H69.4977C69.1352 26.7613 68.8693 26.6985 68.7001 26.573C68.5309 26.4223 68.3738 26.2717 68.2288 26.121L62.5006 18.9656V25.8198C62.5006 26.0959 62.404 26.3219 62.2106 26.4976C62.0414 26.6734 61.836 26.7613 61.5943 26.7613H57.3888Z" fill="black"/>
<ellipse cx="81.1357" cy="21.7274" rx="4.86425" ry="5.05288" fill="#ED1B61"/>
</svg>
