<svg width="86" height="27" viewBox="0 0 86 27" fill="none" xmlns="http://www.w3.org/2000/svg">
<path d="M0.731737 25.9589C0.517094 25.9589 0.341478 25.888 0.204887 25.7461C0.0682956 25.6042 0 25.4218 0 25.1988V5.43589C0 5.21293 0.0682956 5.0305 0.204887 4.88861C0.341478 4.74673 0.517094 4.67578 0.731737 4.67578H9.65893C11.337 4.67578 12.7127 4.91902 13.7859 5.40549C14.8591 5.89196 15.6494 6.59127 16.1568 7.5034C16.6836 8.39526 16.947 9.45942 16.947 10.6959C16.947 11.4256 16.8104 12.0742 16.5373 12.6418C16.2836 13.189 15.9616 13.6451 15.5714 14.01C15.2006 14.3748 14.8494 14.6383 14.5177 14.8005C15.2592 15.1653 15.9128 15.7633 16.4787 16.5943C17.0641 17.4254 17.3568 18.3983 17.3568 19.5132C17.3568 20.851 17.0641 22.0063 16.4787 22.9793C15.9128 23.932 15.0738 24.6718 13.9615 25.1988C12.8688 25.7056 11.5224 25.9589 9.92236 25.9589H0.731737ZM5.23924 22.0063H9.33697C10.176 22.0063 10.8102 21.753 11.2395 21.2462C11.6688 20.7395 11.8834 20.1618 11.8834 19.5132C11.8834 18.8037 11.659 18.2058 11.2102 17.7193C10.7809 17.2328 10.1565 16.9896 9.33697 16.9896H5.23924V22.0063ZM5.23924 13.1282H9.07354C9.87358 13.1282 10.4687 12.9154 10.859 12.4897C11.2688 12.0641 11.4736 11.5168 11.4736 10.8479C11.4736 10.1993 11.2688 9.67225 10.859 9.26686C10.4687 8.8412 9.87358 8.62837 9.07354 8.62837H5.23924V13.1282Z" fill="white"/>
<path d="M19.1756 26.4899C18.9175 26.5164 18.6983 26.4528 18.5179 26.2991C18.3375 26.1455 18.2346 25.9346 18.2091 25.6666L15.9138 1.54595C15.8883 1.27794 15.9496 1.05024 16.0975 0.862829C16.2455 0.67542 16.4484 0.568469 16.7064 0.541978L20.8579 0.115706C21.1159 0.0892141 21.3351 0.152815 21.5156 0.306507C21.696 0.460198 21.7989 0.671047 21.8244 0.939053L24.1197 25.0597C24.1452 25.3277 24.0839 25.5554 23.936 25.7428C23.788 25.9302 23.585 26.0372 23.327 26.0637L19.1756 26.4899Z" fill="white"/>
<path d="M30.686 26.3626C29.289 26.3626 28.0342 26.0939 26.9218 25.5564C25.8352 24.992 24.9685 24.2395 24.3217 23.2989C23.675 22.3583 23.3516 21.2968 23.3516 20.1143C23.3516 18.2062 24.1018 16.7013 25.6024 15.5994C27.1029 14.4707 29.095 13.7048 31.5786 13.3017L36.4294 12.5357V11.9714C36.4294 11.0039 36.2354 10.2649 35.8473 9.75424C35.4593 9.24363 34.7478 8.98832 33.713 8.98832C32.9886 8.98832 32.3935 9.13613 31.9279 9.43175C31.488 9.72737 31.1388 10.1305 30.8801 10.6411C30.6472 10.9905 30.3238 11.1651 29.9099 11.1651H25.5635C25.279 11.1651 25.0591 11.0845 24.9038 10.9233C24.7486 10.7352 24.6839 10.5202 24.7098 10.2783C24.7098 9.79456 24.878 9.24363 25.2143 8.62552C25.5765 7.98053 26.1198 7.34899 26.8442 6.73087C27.5686 6.11276 28.4999 5.60215 29.6383 5.19903C30.7766 4.79592 32.1478 4.59436 33.7518 4.59436C35.4334 4.59436 36.8692 4.79592 38.0593 5.19903C39.2494 5.60215 40.2066 6.16651 40.931 6.89212C41.6813 7.61773 42.2375 8.47771 42.5997 9.47206C42.9619 10.4395 43.143 11.5145 43.143 12.697V24.9517C43.143 25.2473 43.0395 25.4892 42.8325 25.6773C42.6514 25.8654 42.4315 25.9595 42.1728 25.9595H37.6712C37.3867 25.9595 37.1538 25.8654 36.9727 25.6773C36.7916 25.4892 36.7011 25.2473 36.7011 24.9517V23.5408C36.3648 24.0514 35.912 24.5217 35.3428 24.9517C34.7737 25.3817 34.101 25.7176 33.3249 25.9595C32.5746 26.2282 31.695 26.3626 30.686 26.3626ZM32.51 21.7671C33.2602 21.7671 33.9329 21.6059 34.5279 21.2834C35.1488 20.934 35.6274 20.4099 35.9638 19.7112C36.3259 18.9856 36.507 18.0853 36.507 17.0103V16.446L33.2085 17.0506C31.9925 17.2656 31.1 17.6016 30.5308 18.0584C29.9875 18.4884 29.7159 18.999 29.7159 19.5903C29.7159 20.0471 29.8452 20.4368 30.1039 20.7593C30.3626 21.0818 30.699 21.3371 31.1129 21.5252C31.5268 21.6865 31.9925 21.7671 32.51 21.7671Z" fill="white"/>
<path d="M50.4352 25.4737C48.8858 25.4737 47.5144 25.1801 46.3209 24.5929C45.1274 24.0056 44.1747 23.1574 43.4628 22.0481C42.7719 20.9171 42.395 19.5686 42.3322 18.0026C42.3113 17.6546 42.3008 17.2196 42.3008 16.6976C42.3008 16.1538 42.3113 15.708 42.3322 15.36C42.395 13.7722 42.7719 12.4237 43.4628 11.3145C44.1538 10.1835 45.096 9.32433 46.2895 8.73708C47.5039 8.14983 48.8858 7.8562 50.4352 7.8562C51.88 7.8562 53.1153 8.0737 54.1413 8.5087C55.1672 8.92195 56.0048 9.44395 56.6538 10.0747C57.3029 10.7055 57.7845 11.358 58.0986 12.0322C58.4336 12.6847 58.6116 13.2611 58.6325 13.7613C58.6534 13.9788 58.5802 14.1746 58.4127 14.3486C58.2451 14.5008 58.0567 14.577 57.8473 14.577H53.8586C53.6283 14.577 53.4503 14.5226 53.3247 14.4138C53.1991 14.3051 53.0839 14.142 52.9792 13.9245C52.728 13.2502 52.4034 12.7717 52.0056 12.489C51.6287 12.2062 51.1367 12.0648 50.5295 12.0648C49.6919 12.0648 49.0429 12.3476 48.5822 12.9131C48.1425 13.4786 47.9017 14.3486 47.8598 15.5231C47.8389 16.3931 47.8389 17.1652 47.8598 17.8395C47.9017 19.0357 48.1425 19.9057 48.5822 20.4495C49.0429 20.9932 49.6919 21.2651 50.5295 21.2651C51.1785 21.2651 51.6915 21.1237 52.0684 20.841C52.4453 20.5582 52.7489 20.0797 52.9792 19.4055C53.0839 19.188 53.1991 19.0248 53.3247 18.9161C53.4503 18.8073 53.6283 18.753 53.8586 18.753H57.8473C58.0567 18.753 58.2451 18.84 58.4127 19.014C58.5802 19.1662 58.6534 19.3511 58.6325 19.5686C58.6116 19.9383 58.5069 20.3733 58.3184 20.8736C58.13 21.3521 57.8369 21.8632 57.439 22.407C57.0412 22.9507 56.5178 23.4619 55.8687 23.9404C55.2405 24.3971 54.4763 24.7669 53.5759 25.0496C52.6756 25.3324 51.6287 25.4737 50.4352 25.4737Z" fill="white"/>
<path d="M57.3888 26.8716C57.1229 26.8716 56.9054 26.7837 56.7362 26.608C56.567 26.4322 56.4824 26.2063 56.4824 25.9301V1.07444C56.4824 0.798263 56.567 0.572303 56.7362 0.396556C56.9054 0.220809 57.1229 0.132935 57.3888 0.132935H61.5943C61.836 0.132935 62.0414 0.220809 62.2106 0.396556C62.404 0.572303 62.5006 0.798263 62.5006 1.07444V13.6906L67.54 7.92858C67.685 7.75283 67.8421 7.60219 68.0113 7.47666C68.1805 7.35112 68.4222 7.28836 68.7364 7.28836H73.5944C73.812 7.28836 73.9932 7.37623 74.1382 7.55198C74.3074 7.70262 74.392 7.89092 74.392 8.11688C74.392 8.21731 74.3679 8.33029 74.3195 8.45582C74.2712 8.58135 74.1987 8.68178 74.102 8.7571L67.5762 16.0632L75.0084 25.4405C75.2017 25.6414 75.2984 25.8422 75.2984 26.0431C75.2984 26.2691 75.2138 26.4699 75.0446 26.6457C74.8996 26.7963 74.7062 26.8716 74.4645 26.8716H69.4977C69.1352 26.8716 68.8693 26.8089 68.7001 26.6833C68.5309 26.5327 68.3738 26.382 68.2288 26.2314L62.5006 19.076V25.9301C62.5006 26.2063 62.404 26.4322 62.2106 26.608C62.0414 26.7837 61.836 26.8716 61.5943 26.8716H57.3888Z" fill="white"/>
<ellipse cx="81.1357" cy="21.8373" rx="4.86425" ry="5.05288" fill="#ED1B61"/>
</svg>
