<?xml version="1.0" standalone="no"?>
<!DOCTYPE svg PUBLIC "-//W3C//DTD SVG 20010904//EN"
 "http://www.w3.org/TR/2001/REC-SVG-20010904/DTD/svg10.dtd">
<svg version="1.0" xmlns="http://www.w3.org/2000/svg"
 width="258.000000pt" height="258.000000pt" viewBox="0 0 258.000000 258.000000"
 preserveAspectRatio="xMidYMid meet">
<metadata>
Created by potrace 1.14, written by Peter Selinger 2001-2017
</metadata>
<g transform="translate(0.000000,258.000000) scale(0.100000,-0.100000)"
fill="#000000" stroke="none">
<path d="M525 1680 l-40 -5 2 -110 c3 -94 1 -107 -10 -87 -32 55 -89 71 -257
73 -74 0 -154 0 -177 0 l-43 -1 0 -314 c0 -242 3 -315 13 -318 6 -3 91 -4 187
-3 155 1 179 4 215 22 56 30 85 63 99 119 l13 49 9 -80 c4 -44 9 -83 10 -87 1
-5 2 -15 3 -24 1 -14 11 -15 78 -10 43 4 82 11 87 16 6 6 9 27 8 47 l-3 37 32
-33 c80 -84 241 -91 321 -14 l28 27 0 -27 c0 -14 6 -29 13 -34 16 -10 154 -11
169 -2 7 4 12 30 12 58 0 28 2 51 4 51 2 0 17 -14 34 -30 54 -54 84 -65 183
-65 74 0 97 4 132 23 23 12 44 22 47 22 2 0 2 -15 1 -33 -2 -18 0 -38 4 -45 9
-15 161 -19 170 -3 4 6 7 54 6 107 0 52 2 97 6 100 4 2 14 -6 22 -19 8 -12 23
-32 33 -43 11 -12 33 -39 49 -60 79 -101 72 -97 171 -96 98 0 120 12 91 48 -9
10 -62 77 -118 147 -101 127 -101 128 -83 149 56 63 104 116 141 157 39 42 55
79 36 82 -5 1 -46 2 -91 3 -95 2 -69 18 -199 -122 l-58 -64 1 184 c0 100 -3
191 -8 201 -7 14 -22 17 -82 17 -47 0 -77 -4 -83 -12 -5 -7 -9 -73 -9 -145 1
-73 1 -133 0 -133 -1 0 -23 12 -49 26 -38 22 -60 27 -118 27 -116 1 -161 -18
-213 -85 l-22 -28 -6 39 c-9 59 -59 119 -123 148 -78 36 -212 37 -290 3 -81
-34 -156 -131 -126 -161 5 -5 44 -10 86 -10 74 -1 79 0 106 30 57 60 151 36
151 -39 0 -31 -7 -35 -80 -45 -150 -20 -256 -70 -296 -140 -7 -14 -11 -15 -11
-5 0 8 -6 69 -12 135 -7 66 -14 140 -16 165 -24 249 -19 231 -68 228 -23 -2
-60 -5 -82 -8z m-235 -249 c26 -2 40 -16 50 -50 8 -28 6 -36 -15 -57 -21 -21
-33 -24 -95 -24 -75 0 -72 -3 -72 60 0 80 -4 76 60 74 31 -1 64 -2 72 -3z
m224 -171 c3 -36 8 -85 10 -110 l5 -45 -11 38 c-5 21 -24 53 -42 71 l-31 33
30 40 c17 22 31 40 31 39 1 -1 4 -30 8 -66z m1046 58 c5 -7 19 -25 30 -39 16
-21 26 -25 59 -23 44 2 42 5 46 -66 2 -54 -3 -60 -50 -60 -39 0 -46 -4 -65
-34 -24 -39 -59 -49 -101 -29 -37 17 -50 81 -40 201 1 7 12 24 26 37 26 27 77
34 95 13z m-464 -135 c-2 -10 -6 -35 -10 -56 -7 -37 -46 -77 -84 -84 -61 -11
-121 32 -107 77 9 30 42 48 116 64 86 19 88 19 85 -1z m-764 -21 c41 -40 26
-105 -26 -121 -17 -5 -57 -9 -88 -9 -48 -1 -58 2 -59 16 -2 33 2 125 6 132 2
3 37 5 77 3 53 -2 77 -7 90 -21z"/>
<path d="M2374 1176 c-93 -41 -112 -197 -30 -256 110 -81 253 7 232 142 -16
99 -112 153 -202 114z"/>
</g>
</svg>
